#N canvas 692 39 543 301 10;
#X obj 212 73 notein;
#X floatatom 212 190 5 0 0 0 - - -;
#X floatatom 228 149 5 0 0 0 - - -;
#X floatatom 245 112 5 0 0 0 - - -;
#X floatatom 34 187 5 0 0 0 - - -;
#X floatatom 47 149 5 0 0 0 - - -;
#X obj 34 73 ctlin;
#X floatatom 61 111 5 0 0 0 - - -;
#X text 249 191 MIDI note;
#X text 264 148 velocity;
#X text 280 113 MIDI channel;
#X text 70 187 MIDI note;
#X text 83 147 velocity;
#X text 96 111 MIDI channel;
#X text 32 50 K N O B S;
#X text 210 49 M I D I;
#X text 15 254 NOTE: input and output divice conect with the smartpad
;
#N canvas 886 153 363 405 change 0;
#X obj 109 356 noteout;
#X msg 128 105 1;
#X msg 141 126 17;
#X msg 155 147 33;
#X msg 169 168 49;
#X msg 183 189 65;
#X msg 197 210 81;
#X msg 211 231 97;
#X obj 19 21 notein;
#X floatatom 19 65 5 0 0 0 - - -;
#X obj 131 294 hsl 128 15 0 127 0 0 empty empty empty -2 -8 0 10 -262144
-1 -1 0 1;
#X floatatom 72 65 5 0 0 0 - - -;
#X obj 72 23 ctlin 7;
#X text 253 104 1-16 white;
#X text 253 124 17-32 yellow;
#X text 256 188 65-80 blue;
#X text 253 208 81-96 green;
#X text 254 231 97-127 red;
#X text 254 250 0 none color;
#X text 253 146 33-48 cyan;
#X text 253 167 49-64 magenta;
#X floatatom 128 325 5 0 0 0 - - -;
#X msg 225 252 0;
#X obj 128 23 hradio 15 1 0 8 empty ccga empty 0 -8 0 10 -262144 -1
-1 7;
#X obj 128 54 sel 0 1 2 3 4 5 6 7;
#X connect 1 0 10 0;
#X connect 2 0 10 0;
#X connect 3 0 10 0;
#X connect 4 0 10 0;
#X connect 5 0 10 0;
#X connect 6 0 10 0;
#X connect 7 0 10 0;
#X connect 8 0 9 0;
#X connect 9 0 0 0;
#X connect 10 0 21 0;
#X connect 11 0 10 0;
#X connect 12 0 11 0;
#X connect 21 0 0 1;
#X connect 22 0 10 0;
#X connect 23 0 24 0;
#X connect 24 0 1 0;
#X connect 24 1 2 0;
#X connect 24 2 3 0;
#X connect 24 3 4 0;
#X connect 24 4 5 0;
#X connect 24 5 6 0;
#X connect 24 6 7 0;
#X connect 24 7 22 0;
#X restore 19 224 pd change color;
#X obj 391 75 vradio 15 1 0 8 ccga empty empty 0 -8 0 10 -262144 -1
-1 7;
#X text 408 75 1-16 white;
#X text 408 90 17-32 yellow;
#X text 409 135 65-80 blue;
#X text 409 150 81-96 green;
#X text 408 166 97-127 red;
#X text 408 181 0 none color;
#X text 409 106 33-48 cyan;
#X text 409 121 49-64 magenta;
#X text 28 12 SMARTPAD TESTER CHANGER COLOR;
#X connect 0 0 1 0;
#X connect 0 1 2 0;
#X connect 0 2 3 0;
#X connect 6 0 4 0;
#X connect 6 1 5 0;
#X connect 6 2 7 0;
